<svg width="18" height="18" viewBox="0 0 18 18" fill="none" xmlns="http://www.w3.org/2000/svg">
<g clip-path="url(#clip0_222_1047)">
<path d="M16.2158 10.7019C17.1569 6.71488 14.6876 2.71991 10.7006 1.77888C6.71354 0.83786 2.71857 3.30713 1.77754 7.29416C0.83652 11.2812 3.30579 15.2762 7.29282 16.2172C11.2798 17.1582 15.2748 14.6889 16.2158 10.7019Z" fill="#FFD85A"/>
<path d="M11.5575 7.80748C11.9025 8.51248 12.3825 9.69748 12.5025 11.2425C12.6375 12.885 12.3075 14.1975 12.06 14.9625C11.6025 15.15 10.665 15.57 10.7175 15.915C10.7775 16.2825 11.955 16.3875 12.675 16.365C13.4625 16.335 14.6475 16.1175 14.6775 15.735C14.685 15.63 14.6175 15.3375 13.3875 14.91C13.665 14.1225 14.0175 12.7875 13.935 11.115C13.8525 9.56248 13.4175 8.34748 13.0875 7.60498C12.5775 7.67248 12.0675 7.73248 11.565 7.79998L11.5575 7.80748Z" fill="#4AB7ED"/>
<path d="M12.285 9.2175C13.1217 9.2175 13.8 8.53921 13.8 7.7025C13.8 6.86579 13.1217 6.1875 12.285 6.1875C11.4483 6.1875 10.77 6.86579 10.77 7.7025C10.77 8.53921 11.4483 9.2175 12.285 9.2175Z" fill="#222222"/>
<path d="M6.35253 7.80748C6.00753 8.51248 5.52753 9.69748 5.40753 11.2425C5.27253 12.885 5.60253 14.1975 5.85003 14.9625C6.30753 15.15 7.24503 15.57 7.19253 15.915C7.13253 16.2825 5.95503 16.3875 5.23503 16.365C4.44753 16.335 3.26253 16.1175 3.23253 15.735C3.22503 15.63 3.29253 15.3375 4.52253 14.91C4.24503 14.1225 3.89253 12.7875 3.97503 11.115C4.05753 9.56248 4.49253 8.34748 4.82253 7.60498C5.33253 7.67248 5.84253 7.73248 6.34503 7.79998L6.35253 7.80748Z" fill="#4AB7ED"/>
<path d="M7.46252 10.0275C7.55252 9.33 8.14502 8.805 8.84252 8.79C9.54002 8.7825 10.1475 9.285 10.26 9.975" stroke="#222222" stroke-linecap="round" stroke-linejoin="round"/>
<path d="M13.125 6.95998C13.3125 7.17748 13.485 7.55248 13.3425 7.86748C13.335 7.88248 13.2225 8.13748 13.0725 8.12998C12.9075 8.12248 12.915 7.80748 12.645 7.46998C12.345 7.09498 11.985 7.04998 12.0075 6.86998C12.0225 6.71248 12.3 6.63748 12.315 6.62998C12.7275 6.51748 13.095 6.92998 13.125 6.95998Z" fill="white"/>
<path d="M5.67748 9.2175C6.51419 9.2175 7.19248 8.53921 7.19248 7.7025C7.19248 6.86579 6.51419 6.1875 5.67748 6.1875C4.84076 6.1875 4.16248 6.86579 4.16248 7.7025C4.16248 8.53921 4.84076 9.2175 5.67748 9.2175Z" fill="#222222"/>
<path d="M6.50998 6.95998C6.69748 7.17748 6.86998 7.55248 6.72748 7.86748C6.71998 7.88248 6.60748 8.13748 6.45748 8.12998C6.29248 8.12248 6.29998 7.80748 6.02998 7.46998C5.72998 7.09498 5.36998 7.04998 5.39248 6.86998C5.40748 6.71248 5.68498 6.63748 5.69998 6.62998C6.11248 6.51748 6.47998 6.92998 6.50998 6.95998Z" fill="white"/>
</g>
<defs>
<clipPath id="clip0_222_1047">
<rect width="18" height="18" fill="white"/>
</clipPath>
</defs>
</svg>
