<svg width="18" height="18" viewBox="0 0 18 18" fill="none" xmlns="http://www.w3.org/2000/svg">
<g clip-path="url(#clip0_222_1037)">
<path d="M8.3409 16.4209C7.8214 16.0592 7.06154 15.5294 6.16211 14.8566C4.75869 13.8222 4.06086 13.3007 3.59563 12.855C2.59541 11.8879 0.742271 10.0881 0.750024 7.41374C0.750024 6.58115 0.951621 4.50388 2.66519 3.18351C3.45607 2.57799 4.45629 2.25 5.47978 2.25C6.63508 2.25 7.73611 2.6705 8.58126 3.4274C8.73634 3.56196 8.87591 3.70493 8.99996 3.85631C9.12402 3.71334 9.26359 3.57037 9.41866 3.4274C10.2638 2.6705 11.3648 2.25 12.5201 2.25C13.5436 2.25 14.5439 2.5864 15.3347 3.18351C17.1026 4.53752 17.2499 6.75776 17.2499 7.41374C17.2654 10.0881 15.4045 11.8879 14.4043 12.855C13.9391 13.3007 13.28 13.7885 11.8378 14.8566C10.9306 15.521 10.1708 16.0592 9.65903 16.4209L8.99996 16.875L8.3409 16.4209Z" fill="#FFDCF1"/>
<path d="M13.7909 5.07966C12.7103 4.27286 11.0705 4.29683 10.0126 5.22345C9.06045 6.0622 9 7.26041 8.99244 7.49207C8.99244 7.26041 8.92443 6.05421 7.9723 5.22345C6.91437 4.29683 5.26702 4.27286 4.19398 5.07966C3.06804 5.91841 3.00003 7.33231 3.00003 7.69976C2.99248 9.42519 4.29977 10.6633 5.07811 11.3982C5.41816 11.7258 6.00002 12.1411 7.16374 12.9719C7.92696 13.5231 8.56172 13.9544 9 14.25C9.43829 13.9544 10.073 13.5151 10.8363 12.9719C11.9924 12.1411 12.5743 11.7178 12.9219 11.3982C13.7002 10.6633 15.0075 9.42519 15 7.69976C15 7.33231 14.932 5.91841 13.806 5.07966H13.7909Z" fill="#E84989"/>
</g>
<defs>
<clipPath id="clip0_222_1037">
<rect width="18" height="18" fill="white"/>
</clipPath>
</defs>
</svg>
