<svg width="18" height="18" viewBox="0 0 18 18" fill="none" xmlns="http://www.w3.org/2000/svg">
<g clip-path="url(#clip0_222_1019)">
<path d="M14.2439 14.4535C17.1406 11.5567 17.1406 6.86025 14.2439 3.96353C11.3471 1.06682 6.65065 1.06682 3.75394 3.96353C0.857223 6.86025 0.857222 11.5567 3.75394 14.4535C6.65065 17.3502 11.3472 17.3502 14.2439 14.4535Z" fill="#FFD85A"/>
<path d="M3.74253 8.265C5.22753 8.25 6.94503 8.3325 8.83503 8.595C10.8975 8.88 12.705 9.3225 14.22 9.7875C13.7775 12.6675 11.055 14.67 8.19003 14.235C5.35503 13.8075 3.35253 11.13 3.74253 8.265Z" fill="#E84989"/>
<path d="M10.6125 7.11005C11.475 6.18755 12.6825 5.96255 13.4625 6.44255C13.995 6.77255 14.19 7.34255 14.2575 7.59005" stroke="#222222" stroke-linecap="round" stroke-linejoin="round"/>
<path d="M7.68747 6.81002C7.09497 5.63252 5.96247 5.10752 5.15247 5.40002C4.59747 5.60252 4.31997 6.13502 4.22247 6.36002" stroke="#222222" stroke-linecap="round" stroke-linejoin="round"/>
</g>
<defs>
<clipPath id="clip0_222_1019">
<rect width="18" height="18" fill="white"/>
</clipPath>
</defs>
</svg>
