<svg width="18" height="18" viewBox="0 0 18 18" fill="none" xmlns="http://www.w3.org/2000/svg">
<path d="M9.00001 8.76923C8.27815 8.76923 7.66019 8.51221 7.14612 7.99816C6.63206 7.48409 6.37503 6.86613 6.37503 6.14427C6.37503 5.42239 6.63206 4.80443 7.14612 4.29038C7.66019 3.77632 8.27815 3.51929 9.00001 3.51929C9.72187 3.51929 10.3398 3.77632 10.8539 4.29038C11.368 4.80443 11.625 5.42239 11.625 6.14427C11.625 6.86613 11.368 7.48409 10.8539 7.99816C10.3398 8.51221 9.72187 8.76923 9.00001 8.76923ZM3.37503 14.4808V12.8135C3.37503 12.4462 3.47479 12.106 3.67432 11.7931C3.87383 11.4801 4.14041 11.2395 4.47406 11.0712C5.21541 10.7077 5.96325 10.4351 6.71757 10.2534C7.4719 10.0717 8.23271 9.98082 9.00001 9.98082C9.76731 9.98082 10.5281 10.0717 11.2824 10.2534C12.0368 10.4351 12.7846 10.7077 13.526 11.0712C13.8596 11.2395 14.1262 11.4801 14.3257 11.7931C14.5252 12.106 14.625 12.4462 14.625 12.8135V14.4808H3.37503ZM4.50001 13.3558H13.5V12.8135C13.5 12.6616 13.456 12.5209 13.368 12.3916C13.2801 12.2623 13.1606 12.1567 13.0096 12.075C12.3635 11.7567 11.7046 11.5156 11.033 11.3517C10.3615 11.1878 9.68379 11.1058 9.00001 11.1058C8.31624 11.1058 7.63856 11.1878 6.96699 11.3517C6.29541 11.5156 5.63655 11.7567 4.9904 12.075C4.83944 12.1567 4.71997 12.2623 4.63199 12.3916C4.54401 12.5209 4.50001 12.6616 4.50001 12.8135V13.3558ZM9.00001 7.64427C9.41251 7.64427 9.76564 7.49739 10.0594 7.20364C10.3531 6.90989 10.5 6.55677 10.5 6.14427C10.5 5.73177 10.3531 5.37864 10.0594 5.08489C9.76564 4.79114 9.41251 4.64427 9.00001 4.64427C8.58751 4.64427 8.23439 4.79114 7.94064 5.08489C7.64689 5.37864 7.50001 5.73177 7.50001 6.14427C7.50001 6.55677 7.64689 6.90989 7.94064 7.20364C8.23439 7.49739 8.58751 7.64427 9.00001 7.64427Z" fill="#848484"/>
</svg>
