<svg width="18" height="18" viewBox="0 0 18 18" fill="none" xmlns="http://www.w3.org/2000/svg">
<g clip-path="url(#clip0_222_1025)">
<path d="M9.00002 16.4175C13.0966 16.4175 16.4175 13.0966 16.4175 9.00002C16.4175 4.90345 13.0966 1.58252 9.00002 1.58252C4.90345 1.58252 1.58252 4.90345 1.58252 9.00002C1.58252 13.0966 4.90345 16.4175 9.00002 16.4175Z" fill="#FFD85A"/>
<path d="M12.4425 9.62995C13.23 10.2075 13.455 11.595 13.005 12.6675C12.6675 13.4775 11.9025 14.1825 11.0175 14.3175C10.02 14.46 9.81003 13.7325 8.28003 13.4175C6.63003 13.0725 5.96253 13.7775 5.17503 13.14C4.61253 12.69 4.30503 11.895 4.35753 11.13C4.40253 10.41 4.77003 9.63745 5.40003 9.25495C6.31503 8.70745 6.95253 9.56245 8.97003 9.65995C11.0175 9.76495 11.6625 9.05995 12.4425 9.63745V9.62995Z" fill="#E84989"/>
<path d="M7.11748 6.58499C7.11748 7.22998 6.59998 7.74749 5.95498 7.74749C5.30998 7.74749 4.79248 7.22998 4.79248 6.58499C4.79248 5.93999 5.30998 5.42249 5.95498 5.42249C6.59998 5.42249 7.11748 5.93999 7.11748 6.58499Z" fill="white" stroke="#222222" stroke-miterlimit="10"/>
<path d="M13.425 7.19998C13.425 7.84498 12.9075 8.36248 12.2625 8.36248C11.6175 8.36248 11.1 7.84498 11.1 7.19998C11.1 6.55498 11.6175 6.03748 12.2625 6.03748C12.9075 6.03748 13.425 6.55498 13.425 7.19998Z" fill="white" stroke="#222222" stroke-miterlimit="10"/>
</g>
<defs>
<clipPath id="clip0_222_1025">
<rect width="18" height="18" fill="white"/>
</clipPath>
</defs>
</svg>
