<svg width="72" height="24" viewBox="0 0 72 24" fill="none" xmlns="http://www.w3.org/2000/svg">
<g clip-path="url(#clip0_182_313)">
<path d="M2.84542 9.52077H2.07104C0.588294 9.52077 0 8.5783 0 7.59381C0 6.60932 0.564282 5.61882 2.07104 5.61882H2.84542V3.1756C2.84542 1.5788 3.998 0.846436 5.17459 0.846436C6.35118 0.846436 7.50375 1.5728 7.50375 3.1756V5.61882H8.89044C10.3972 5.61882 10.9615 6.62733 10.9615 7.59381C10.9615 8.56029 10.3732 9.52077 8.89044 9.52077H7.50375V15.3497C7.50375 16.052 7.85793 16.2201 8.25413 16.2441C8.6083 16.2681 8.81841 16.1481 9.28664 16.1481C10.061 16.1481 10.7214 16.6643 10.8834 17.4387C11.0935 18.4052 10.6733 19.2036 10.013 19.6238C9.47274 19.978 8.57829 20.2601 7.77989 20.2601C4.65233 20.2601 2.84542 18.9935 2.84542 15.4397V9.51477V9.52077Z" fill="#8222DD"/>
<path d="M14.7854 0C16.1 0 17.2286 0.612306 17.2286 2.16108C17.2286 3.70986 16.1 4.32216 14.7854 4.32216C13.4707 4.32216 12.3422 3.70986 12.3422 2.16108C12.3422 0.612306 13.4707 0 14.7854 0ZM12.3662 7.68384C12.3662 6.06303 13.4707 5.33067 14.7854 5.33067C16.1 5.33067 17.2046 6.05703 17.2046 7.68384V19.8579H12.3602V7.68384H12.3662Z" fill="#8222DD"/>
<path d="M19.6718 19.8639V7.52176C19.6718 5.97298 20.8004 5.16858 22.043 5.16858C22.9615 5.16858 23.8319 5.6128 24.2281 6.45922C25.1466 5.6128 26.4132 5.16858 27.6618 5.16858C30.6453 5.16858 33.0225 6.65132 33.0225 11.6098V19.8579H28.1781V11.3277C28.1781 9.73086 27.1215 9.19059 26.3231 9.19059C25.5247 9.19059 24.4442 9.73086 24.4442 11.3277V19.8579H19.6718V19.8639Z" fill="#8222DD"/>
<path d="M43.93 24V19.3236C43.0355 19.9119 41.955 20.2661 40.8024 20.2661C37.6989 20.2661 35.1116 18.7413 35.1116 13.7769V11.6638C35.1116 6.70533 37.6989 5.17456 40.8024 5.17456C41.979 5.17456 43.2216 5.61878 44.1401 6.46521C44.5183 5.61878 45.4067 5.17456 46.3252 5.17456C47.5738 5.17456 48.6964 5.97296 48.6964 7.52774V24.006H43.924L43.93 24ZM39.956 14.107C39.956 15.7038 41.1086 16.2441 41.931 16.2441C42.7534 16.2441 43.8579 15.7278 43.93 14.2211V11.2136C43.8579 9.70683 42.7294 9.19057 41.931 9.19057C41.1326 9.19057 39.956 9.73084 39.956 11.3276V14.101V14.107Z" fill="#8222DD"/>
<path d="M51.1456 2.35318C51.1456 0.732366 52.2501 0 53.5648 0C54.8795 0 55.984 0.726363 55.984 2.35318V19.8639H51.1396V2.35318H51.1456Z" fill="#8222DD"/>
<path d="M58.2472 13.7529V11.6818C58.2472 6.67533 61.939 5.16858 64.9465 5.16858C68.2121 5.16858 71.4358 6.43521 71.4358 12.6663C71.4358 13.0685 71.3877 13.7229 71.3157 14.1251H62.8995V14.1491C62.8995 15.7459 64.4483 16.2861 65.5768 16.2861C66.7054 16.2861 67.2216 16.1901 67.858 15.98C68.2121 15.8599 68.5603 15.6738 68.9625 15.6258C69.7609 15.5298 70.5113 15.8119 70.8174 16.5203C71.3097 17.6728 70.7454 18.6573 69.6168 19.3177C68.8665 19.7619 67.1976 20.2601 65.4808 20.2601C62.0711 20.2601 58.2411 18.6633 58.2411 13.7469L58.2472 13.7529ZM62.8995 11.0515H66.8735C66.9455 9.50275 66.003 8.98049 64.9705 8.98049C63.938 8.98049 62.9235 9.49674 62.8995 11.0515Z" fill="#8222DD"/>
</g>
<defs>
<clipPath id="clip0_182_313">
<rect width="71.4357" height="24" fill="white"/>
</clipPath>
</defs>
</svg>
