<svg width="24" height="24" viewBox="0 0 24 24" fill="none" xmlns="http://www.w3.org/2000/svg">
<path d="M18.125 13.75V10.75H15.125V9.25006H18.125V6.25006H19.625V9.25006H22.625V10.75H19.625V13.75H18.125ZM9.00001 11.6923C8.03752 11.6923 7.21357 11.3496 6.52816 10.6642C5.84274 9.97879 5.50003 9.15484 5.50003 8.19236C5.50003 7.22986 5.84274 6.40591 6.52816 5.72051C7.21357 5.03509 8.03752 4.69238 9.00001 4.69238C9.96249 4.69238 10.7864 5.03509 11.4719 5.72051C12.1573 6.40591 12.5 7.22986 12.5 8.19236C12.5 9.15484 12.1573 9.97879 11.4719 10.6642C10.7864 11.3496 9.96249 11.6923 9.00001 11.6923ZM1.50006 19.3077V17.0846C1.50006 16.5949 1.63306 16.1414 1.89906 15.7241C2.16509 15.3068 2.52054 14.986 2.96541 14.7616C3.95387 14.277 4.95099 13.9135 5.95676 13.6712C6.96252 13.4289 7.97694 13.3078 9.00001 13.3078C10.0231 13.3078 11.0375 13.4289 12.0433 13.6712C13.049 13.9135 14.0461 14.277 15.0346 14.7616C15.4795 14.986 15.8349 15.3068 16.1009 15.7241C16.367 16.1414 16.5 16.5949 16.5 17.0846V19.3077H1.50006ZM3.00001 17.8077H15V17.0846C15 16.8821 14.9413 16.6946 14.824 16.5221C14.7067 16.3497 14.5474 16.209 14.3462 16.1C13.4846 15.6757 12.6061 15.3542 11.7107 15.1356C10.8153 14.917 9.91171 14.8077 9.00001 14.8077C8.08831 14.8077 7.18474 14.917 6.28931 15.1356C5.39387 15.3542 4.51539 15.6757 3.65386 16.1C3.45257 16.209 3.29328 16.3497 3.17598 16.5221C3.05866 16.6946 3.00001 16.8821 3.00001 17.0846V17.8077ZM9.00001 10.1924C9.55001 10.1924 10.0208 9.99653 10.4125 9.60486C10.8042 9.21319 11 8.74236 11 8.19236C11 7.64236 10.8042 7.17153 10.4125 6.77986C10.0208 6.38819 9.55001 6.19236 9.00001 6.19236C8.45001 6.19236 7.97917 6.38819 7.58751 6.77986C7.19584 7.17153 7.00001 7.64236 7.00001 8.19236C7.00001 8.74236 7.19584 9.21319 7.58751 9.60486C7.97917 9.99653 8.45001 10.1924 9.00001 10.1924Z" fill="#848484"/>
</svg>
