<svg width="24" height="24" viewBox="0 0 24 24" fill="none" xmlns="http://www.w3.org/2000/svg">
<path d="M18.875 7.99998V5.99998H16.875V4.5H18.875V2.5H20.3749V4.5H22.3749V5.99998H20.3749V7.99998H18.875ZM3.18268 21.5C2.67756 21.5 2.25 21.325 1.9 20.975C1.55 20.625 1.375 20.1974 1.375 19.6923V8.3077C1.375 7.80257 1.55 7.375 1.9 7.025C2.25 6.675 2.67756 6.5 3.18268 6.5H6.23653L8.08652 4.5H14.125V5.99998H8.74035L6.90573 7.99998H3.18268C3.09292 7.99998 3.0192 8.02883 2.9615 8.08653C2.90382 8.14423 2.87498 8.21795 2.87498 8.3077V19.6923C2.87498 19.782 2.90382 19.8557 2.9615 19.9134C3.0192 19.9711 3.09292 20 3.18268 20H18.5673C18.657 20 18.7307 19.9711 18.7884 19.9134C18.8461 19.8557 18.875 19.782 18.875 19.6923V10.75H20.3749V19.6923C20.3749 20.1974 20.1999 20.625 19.8499 20.975C19.4999 21.325 19.0724 21.5 18.5673 21.5H3.18268ZM10.875 18.1153C12.0224 18.1153 12.9951 17.7163 13.7932 16.9182C14.5913 16.1202 14.9903 15.1474 14.9903 14C14.9903 12.8525 14.5913 11.8798 13.7932 11.0817C12.9951 10.2837 12.0224 9.88463 10.875 9.88463C9.72754 9.88463 8.75479 10.2837 7.95672 11.0817C7.15864 11.8798 6.7596 12.8525 6.7596 14C6.7596 15.1474 7.15864 16.1202 7.95672 16.9182C8.75479 17.7163 9.72754 18.1153 10.875 18.1153ZM10.875 16.6154C10.1365 16.6154 9.51599 16.3641 9.01342 15.8615C8.51086 15.359 8.25957 14.7384 8.25957 14C8.25957 13.2615 8.51086 12.641 9.01342 12.1384C9.51599 11.6359 10.1365 11.3846 10.875 11.3846C11.6134 11.3846 12.2339 11.6359 12.7365 12.1384C13.2391 12.641 13.4903 13.2615 13.4903 14C13.4903 14.7384 13.2391 15.359 12.7365 15.8615C12.2339 16.3641 11.6134 16.6154 10.875 16.6154Z" fill="#848484"/>
</svg>
