<svg width="18" height="18" viewBox="0 0 18 18" fill="none" xmlns="http://www.w3.org/2000/svg">
<g clip-path="url(#clip0_222_1031)">
<path d="M14.44 14.39C13.76 14.39 13.03 14.09 12.57 13.9C12.38 13.82 12.15 13.72 11.91 13.59C11.14 13.89 10.32 14.04 9.49002 14.04H8.40002C4.85002 14.04 1.96002 11.3 1.96002 7.93997C1.96002 4.57997 4.85002 1.83997 8.41002 1.83997H9.50002C13.05 1.83997 15.94 4.57997 15.94 7.93997C15.94 9.07997 15.61 10.18 14.98 11.14C15.11 11.32 15.24 11.49 15.38 11.64C15.38 11.64 15.4 11.66 15.41 11.67C15.64 11.92 16.12 12.44 16.03 13.13C15.96 13.62 15.63 13.94 15.49 14.05C15.18 14.29 14.82 14.38 14.45 14.38L14.44 14.39ZM11.97 12.37L12.21 12.5C12.5 12.66 12.77 12.79 12.99 12.88C13.39 13.04 14.44 13.47 14.79 13.19C14.84 13.15 14.92 13.06 14.93 12.98C14.95 12.81 14.71 12.55 14.6 12.42L14.57 12.39C14.31 12.11 14.06 11.78 13.84 11.42L13.64 11.1L13.86 10.8C14.49 9.95997 14.83 8.96997 14.83 7.93997C14.83 5.17997 12.44 2.93997 9.49002 2.93997H8.40002C5.46002 2.93997 3.06002 5.17997 3.06002 7.93997C3.06002 10.7 5.45002 12.94 8.40002 12.94H9.49002C10.26 12.94 11.01 12.78 11.72 12.48L11.97 12.37Z" fill="#848484"/>
</g>
<defs>
<clipPath id="clip0_222_1031">
<rect width="18" height="18" fill="white"/>
</clipPath>
</defs>
</svg>
