<svg width="14" height="14" viewBox="0 0 14 14" fill="none" xmlns="http://www.w3.org/2000/svg">
<path d="M3.00644 11.0833H3.72775L9.12922 5.68187L8.40792 4.96054L3.00644 10.362V11.0833ZM11.0003 5.04918L9.03162 3.09841L9.7922 2.33785C9.96345 2.16659 10.1717 2.08096 10.417 2.08096C10.6623 2.08096 10.8706 2.16659 11.0418 2.33785L11.7519 3.04793C11.9232 3.21918 12.0118 3.42447 12.0178 3.66378C12.0238 3.90309 11.9411 4.10838 11.7699 4.27963L11.0003 5.04918ZM10.3677 5.69083L4.10018 11.9583H2.13147V9.98959L8.39893 3.72211L10.3677 5.69083ZM8.76576 5.3184L8.40792 4.96054L9.12922 5.68187L8.76576 5.3184Z" fill="#848484"/>
</svg>
