<svg width="24" height="24" viewBox="0 0 24 24" fill="none" xmlns="http://www.w3.org/2000/svg">
<g clip-path="url(#clip0_182_328)">
<path d="M21.08 16.01C20.9 15.37 20.59 14.94 20.43 14.71C20.12 14.28 19.74 13.9 19.3 13.58V9.45004C19.3 7.36004 18.4 5.37004 16.84 3.98004C15.28 2.59004 13.17 1.95004 11.08 2.20004C7.43 2.64004 4.68 5.87004 4.68 9.70004V13.58C4.24 13.9 3.86 14.28 3.55 14.71C3.38 14.94 3.08 15.37 2.9 16.01C2.76 16.51 2.73 17.03 2.8 17.56C2.84 18.16 3.36 18.64 4 18.64H8.06C8.43 20.47 10.05 21.86 11.98 21.86C13.91 21.86 15.53 20.47 15.9 18.64H19.96C20.6 18.64 21.12 18.16 21.16 17.56C21.24 17.03 21.2 16.51 21.06 16.01H21.08ZM12 20.35C10.9 20.35 9.96 19.63 9.63 18.63H14.37C14.04 19.63 13.1 20.35 12 20.35ZM16.01 17.13H4.28C4.27 16.88 4.29 16.64 4.36 16.41C4.47 16.02 4.65 15.77 4.79 15.58C5.06 15.2 5.42 14.87 5.84 14.62L6.2 14.4V9.70004C6.2 6.62004 8.38 4.04004 11.28 3.69004C12.97 3.48004 14.6 3.99004 15.86 5.10004C17.1 6.20004 17.82 7.79004 17.82 9.45004V14.4L18.18 14.62C18.6 14.88 18.95 15.2 19.23 15.58C19.36 15.77 19.55 16.02 19.66 16.41C19.72 16.64 19.75 16.88 19.74 17.13H16.03H16.01Z" fill="#848484"/>
</g>
<defs>
<clipPath id="clip0_182_328">
<rect width="24" height="24" fill="white"/>
</clipPath>
</defs>
</svg>
