<svg width="24" height="24" viewBox="0 0 24 24" fill="none" xmlns="http://www.w3.org/2000/svg">
<g clip-path="url(#clip0_217_379)">
<path d="M12 21.77C17.3406 21.77 21.67 17.3958 21.67 12C21.67 6.60416 17.3406 2.22998 12 2.22998C6.65942 2.22998 2.33002 6.60416 2.33002 12C2.33002 17.3958 6.65942 21.77 12 21.77Z" stroke="#848484" stroke-width="1.5" stroke-miterlimit="10"/>
<path d="M7.92999 14C8.49999 15.46 10.13 16.45 11.95 16.47C13.81 16.49 15.48 15.48 16.06 14" stroke="#848484" stroke-width="1.5" stroke-linecap="round" stroke-linejoin="round"/>
<path d="M8.62999 10.86C9.2596 10.86 9.76999 10.3496 9.76999 9.71996C9.76999 9.09035 9.2596 8.57996 8.62999 8.57996C8.00039 8.57996 7.48999 9.09035 7.48999 9.71996C7.48999 10.3496 8.00039 10.86 8.62999 10.86Z" fill="#848484"/>
<path d="M15.37 10.86C15.9996 10.86 16.51 10.3496 16.51 9.71996C16.51 9.09035 15.9996 8.57996 15.37 8.57996C14.7404 8.57996 14.23 9.09035 14.23 9.71996C14.23 10.3496 14.7404 10.86 15.37 10.86Z" fill="#848484"/>
</g>
<defs>
<clipPath id="clip0_217_379">
<rect width="24" height="24" fill="white"/>
</clipPath>
</defs>
</svg>
